<mxfile host="app.diagrams.net" modified="2024-04-18T07:55:16.412Z" agent="Mozilla/5.0 (Windows NT 10.0; Win64; x64) AppleWebKit/537.36 (KHTML, like Gecko) Chrome/121.0.0.0 Safari/537.36 OPR/107.0.0.0" version="24.2.5" etag="_zSUa4ySftrWSZt7V5c_" type="github">
  <diagram name="Page-1" id="nPxRAdfWthmBe3eEZG7H">
    <mxGraphModel>
      <root>
        <mxCell id="0" />
        <mxCell id="1" parent="0" />
      </root>
    </mxGraphModel>
  </diagram>
</mxfile>
